<svg width="512" height="512" viewBox="0 0 512 512" fill="none" xmlns="http://www.w3.org/2000/svg">
<g clip-path="url(#clip0_112_86)">
<path d="M0 0H242.642H270.136H512V241.799V269.831V512H271.366H240.028H0V270.194V242.571V0ZM0 242.571V270.194V512H240.028H271.366C274.617 510.974 278.714 511.165 282.123 510.766C288.607 509.995 295.055 508.991 301.467 507.756C308.984 506.309 316.421 504.526 323.776 502.405C331.132 500.285 338.377 497.837 345.511 495.06C348.479 493.904 351.57 492.786 354.474 491.493C356.893 490.417 359.239 489.202 361.703 488.219C360.999 487.693 360.733 486.864 360.372 486.091C354.664 473.865 349.203 461.512 343.628 449.224L311.565 378.563L291.463 334.262C287.832 326.26 283.954 318.289 280.63 310.156C277.996 311.051 275.469 312.234 272.796 313.022C272.019 313.258 271.237 313.478 270.45 313.681C269.663 313.885 268.873 314.072 268.078 314.243C267.284 314.414 266.486 314.569 265.685 314.706C264.884 314.844 264.081 314.965 263.275 315.07C262.47 315.175 261.662 315.263 260.853 315.334C260.043 315.405 259.232 315.459 258.421 315.497C257.609 315.534 256.797 315.555 255.984 315.559C255.172 315.563 254.36 315.55 253.547 315.52C252.735 315.491 251.924 315.444 251.114 315.381C250.304 315.318 249.496 315.238 248.689 315.141C247.882 315.044 247.078 314.93 246.276 314.8C245.473 314.67 244.674 314.523 243.878 314.36C243.082 314.197 242.29 314.018 241.502 313.822C240.713 313.626 239.929 313.414 239.149 313.185C238.369 312.956 237.594 312.712 236.825 312.451C236.055 312.19 235.291 311.914 234.533 311.622C219.312 305.695 207.58 293.796 201.021 278.966C196.439 268.607 195.358 255.333 197.705 244.284C198.656 239.809 200.195 235.647 201.833 231.394C192.49 227.487 183.327 223.007 174.109 218.799L124.663 196.252C91.1726 180.897 57.4372 166.003 24.09 150.344C21.5446 154.913 19.5717 160.033 17.6498 164.895C15.8554 169.402 14.1898 173.955 12.6531 178.556C11.1163 183.157 9.71084 187.798 8.43671 192.478C7.16256 197.159 6.02175 201.871 5.01427 206.616C4.0068 211.361 3.13427 216.131 2.39668 220.925C1.84188 224.441 1.40172 227.971 1.07621 231.516C0.781537 235.01 1.03787 239.276 0 242.571ZM488.412 361.272C482.686 359.268 475.859 355.676 470.222 353.114L433.932 336.651L310.18 280.544C303.842 293.894 294.048 303.897 280.63 310.156C283.954 318.289 287.832 326.26 291.463 334.262L311.565 378.563L343.628 449.224C349.203 461.512 354.664 473.865 360.372 486.091C360.733 486.864 360.999 487.693 361.703 488.219C359.239 489.202 356.893 490.417 354.474 491.493C351.57 492.786 348.479 493.904 345.511 495.06C338.377 497.837 331.132 500.285 323.776 502.405C316.421 504.526 308.984 506.309 301.467 507.756C295.055 508.991 288.607 509.995 282.123 510.766C278.714 511.165 274.617 510.974 271.366 512H512V269.831C510.849 272.994 511.162 277.46 510.877 280.843C510.591 283.98 510.213 287.105 509.743 290.22C508.974 295.321 508.054 300.395 506.984 305.442C505.914 310.489 504.696 315.499 503.329 320.474C501.962 325.449 500.45 330.378 498.792 335.263C497.133 340.148 495.332 344.98 493.387 349.758C491.865 353.522 490.445 357.78 488.412 361.272ZM0 0V242.571C1.03787 239.276 0.781537 235.01 1.07621 231.516C1.40172 227.971 1.84188 224.441 2.39668 220.925C3.13427 216.131 4.0068 211.361 5.01427 206.616C6.02175 201.871 7.16256 197.159 8.43671 192.478C9.71084 187.798 11.1163 183.157 12.6531 178.556C14.1898 173.955 15.8554 169.402 17.6498 164.895C19.5717 160.033 21.5446 154.913 24.09 150.344C57.4372 166.003 91.1726 180.897 124.663 196.252L174.109 218.799C183.327 223.007 192.49 227.487 201.833 231.394C208.144 217.762 217.824 208.127 231.406 201.792L176.255 80.8084L159.31 43.6273C156.443 37.3125 153.711 30.1495 150.31 24.186C153.78 22.1048 157.493 20.6579 161.204 19.0751C180.398 10.8897 201.148 5.34573 221.774 2.29285C225.02 1.8249 228.277 1.45374 231.545 1.17937C234.884 0.913266 239.547 1.21466 242.642 0H0ZM270.136 0C270.202 0.0244777 270.268 0.0505924 270.335 0.073433C273.355 1.1007 277.531 0.842126 280.726 1.06464C283.758 1.27572 286.796 1.63412 289.809 2.03105C300.893 3.56212 311.836 5.78526 322.639 8.70045C324.794 9.29048 326.942 9.9084 329.081 10.5542C331.22 11.2 333.35 11.8735 335.472 12.5746C337.594 13.2758 339.706 14.0044 341.809 14.7604C343.912 15.5164 346.004 16.2996 348.087 17.1099C350.169 17.9203 352.24 18.7576 354.301 19.6217C356.362 20.4859 358.411 21.3767 360.449 22.2941C362.486 23.2115 364.512 24.1552 366.525 25.1252C368.538 26.0952 370.538 27.0912 372.525 28.1132C374.512 29.1351 376.486 30.1827 378.446 31.2559C380.405 32.3292 382.351 33.4277 384.283 34.5514C386.214 35.6752 388.131 36.8239 390.032 37.9974C391.933 39.1709 393.819 40.369 395.69 41.5915C397.561 42.814 399.415 44.0606 401.253 45.3313C403.091 46.602 404.912 47.8964 406.717 49.2144C408.522 50.5324 410.309 51.8736 412.078 53.238C413.847 54.6025 415.599 55.9896 417.333 57.3995C419.066 58.8094 420.781 60.2416 422.478 61.6961C424.174 63.1506 425.851 64.6268 427.509 66.1249C429.168 67.6229 430.806 69.1422 432.424 70.6828C434.043 72.2234 435.641 73.7847 437.219 75.3668C438.797 76.9489 440.354 78.5513 441.891 80.1738C443.428 81.7964 444.943 83.4386 446.436 85.1005C447.93 86.7624 449.402 88.4435 450.852 90.1436C452.302 91.8437 453.73 93.5624 455.135 95.2997C456.54 97.0369 457.923 98.792 459.283 100.565C460.643 102.338 461.98 104.129 463.293 105.937C464.606 107.744 465.896 109.569 467.162 111.411C468.428 113.252 469.67 115.11 470.887 116.983C472.105 118.856 473.298 120.745 474.467 122.65C475.636 124.555 476.779 126.474 477.898 128.409C479.017 130.343 480.11 132.291 481.179 134.254C482.247 136.217 483.289 138.193 484.306 140.183C485.795 143.092 487.228 146.028 488.605 148.991C489.982 151.954 491.301 154.943 492.562 157.957C493.824 160.972 495.027 164.009 496.172 167.069C497.317 170.13 498.403 173.211 499.429 176.313C500.456 179.415 501.422 182.536 502.329 185.675C503.236 188.814 504.082 191.97 504.867 195.142C505.652 198.314 506.376 201.5 507.039 204.699C507.702 207.899 508.303 211.11 508.842 214.333C509.669 219.572 510.345 224.83 510.87 230.108C511.211 233.322 510.851 239.007 512 241.799V0H270.136ZM231.406 201.792C217.824 208.127 208.144 217.762 201.833 231.394C200.195 235.647 198.656 239.809 197.705 244.284C195.358 255.333 196.439 268.607 201.021 278.966C207.58 293.796 219.312 305.695 234.533 311.622C235.291 311.914 236.055 312.19 236.825 312.451C237.594 312.712 238.369 312.956 239.149 313.185C239.929 313.414 240.713 313.626 241.502 313.822C242.29 314.018 243.082 314.197 243.878 314.36C244.674 314.523 245.473 314.67 246.276 314.8C247.078 314.93 247.882 315.044 248.689 315.141C249.496 315.238 250.304 315.318 251.114 315.381C251.924 315.444 252.735 315.491 253.547 315.52C254.36 315.55 255.172 315.563 255.984 315.559C256.797 315.555 257.609 315.534 258.421 315.497C259.232 315.459 260.043 315.405 260.853 315.334C261.662 315.263 262.47 315.175 263.275 315.07C264.081 314.965 264.884 314.844 265.685 314.706C266.486 314.569 267.284 314.414 268.078 314.243C268.873 314.072 269.663 313.885 270.45 313.681C271.237 313.478 272.019 313.258 272.796 313.022C275.469 312.234 277.996 311.051 280.63 310.156C294.048 303.897 303.842 293.894 310.18 280.544C311.237 277.792 312.371 275.089 313.159 272.242C316.535 260.037 316.239 246.491 311.661 234.616C311.305 233.69 310.926 232.773 310.524 231.866C310.122 230.959 309.698 230.063 309.252 229.177C308.805 228.291 308.337 227.416 307.848 226.553C307.358 225.69 306.847 224.84 306.315 224.003C305.783 223.166 305.231 222.342 304.658 221.532C304.085 220.722 303.492 219.927 302.88 219.146C302.267 218.365 301.636 217.6 300.986 216.851C300.335 216.102 299.667 215.37 298.98 214.654C298.293 213.938 297.589 213.239 296.868 212.558C296.147 211.877 295.409 211.214 294.654 210.57C293.9 209.925 293.13 209.3 292.345 208.694C291.559 208.088 290.759 207.502 289.945 206.935C289.13 206.368 288.302 205.822 287.46 205.297C286.619 204.772 285.765 204.268 284.898 203.785C284.031 203.302 283.153 202.841 282.264 202.402C281.374 201.963 280.474 201.546 279.564 201.151C263.284 194.085 247.536 195.439 231.406 201.792Z" fill="url(#paint0_linear_112_86)"/>
<path d="M0 0H242.642C239.547 1.21466 234.884 0.913266 231.545 1.17937C228.277 1.45374 225.02 1.8249 221.774 2.29285C201.148 5.34573 180.398 10.8897 161.204 19.0751C157.493 20.6579 153.78 22.1048 150.31 24.186C153.711 30.1495 156.443 37.3125 159.31 43.6273L176.255 80.8084L231.406 201.792C217.824 208.127 208.144 217.762 201.833 231.394C192.49 227.487 183.327 223.007 174.109 218.799L124.663 196.252C91.1726 180.897 57.4372 166.003 24.09 150.344C21.5446 154.913 19.5717 160.033 17.6498 164.895C15.8554 169.402 14.1898 173.955 12.6531 178.556C11.1163 183.157 9.71084 187.798 8.43671 192.478C7.16256 197.159 6.02175 201.871 5.01427 206.616C4.0068 211.361 3.13427 216.131 2.39668 220.925C1.84188 224.441 1.40172 227.971 1.07621 231.516C0.781537 235.01 1.03787 239.276 0 242.571V0ZM0 0V242.571C1.03787 239.276 0.781537 235.01 1.07621 231.516C1.40172 227.971 1.84188 224.441 2.39668 220.925C3.13427 216.131 4.0068 211.361 5.01427 206.616C6.02175 201.871 7.16256 197.159 8.43671 192.478C9.71084 187.798 11.1163 183.157 12.6531 178.556C14.1898 173.955 15.8554 169.402 17.6498 164.895C19.5717 160.033 21.5446 154.913 24.09 150.344C24.2104 150.015 24.3384 149.691 24.4803 149.37C44.8575 103.364 80.8382 63.8797 123.816 37.9735C131.591 33.2865 141.864 27.423 150.31 24.186C153.78 22.1048 157.493 20.6579 161.204 19.0751C180.398 10.8897 201.148 5.34573 221.774 2.29285C225.02 1.8249 228.277 1.45374 231.545 1.17937C234.884 0.913266 239.547 1.21466 242.642 0H0Z" fill="url(#paint1_linear_112_86)"/>
<path d="M488.412 361.272C490.445 357.78 491.865 353.522 493.387 349.758C495.332 344.98 497.134 340.148 498.792 335.263C500.45 330.378 501.963 325.449 503.329 320.474C504.696 315.499 505.914 310.489 506.984 305.442C508.054 300.395 508.974 295.321 509.743 290.22C510.213 287.105 510.591 283.98 510.877 280.843C511.162 277.46 510.849 272.994 512 269.831V512H271.366C274.617 510.974 278.714 511.165 282.123 510.766C288.607 509.995 295.055 508.991 301.467 507.756C308.985 506.309 316.421 504.526 323.776 502.405C331.132 500.285 338.377 497.837 345.511 495.06C348.479 493.904 351.57 492.786 354.474 491.493C356.893 490.417 359.239 489.202 361.703 488.219C360.999 487.693 360.733 486.864 360.372 486.091C354.664 473.865 349.203 461.512 343.628 449.224L311.565 378.563L291.463 334.262C287.832 326.26 283.954 318.289 280.63 310.156C294.048 303.897 303.842 293.894 310.18 280.544L433.932 336.651L470.222 353.114C475.859 355.676 482.686 359.268 488.412 361.272ZM488.412 361.272C484.818 368.521 481.355 375.82 477.295 382.829C475.973 385.122 474.616 387.393 473.223 389.644C471.831 391.895 470.404 394.124 468.943 396.331C467.482 398.538 465.987 400.721 464.458 402.882C462.93 405.043 461.368 407.179 459.773 409.292C458.179 411.405 456.553 413.492 454.893 415.554C453.235 417.616 451.544 419.652 449.822 421.663C448.101 423.673 446.349 425.656 444.565 427.612C442.783 429.568 440.97 431.496 439.127 433.396C437.285 435.296 435.413 437.167 433.513 439.01C431.613 440.852 429.685 442.665 427.729 444.448C425.773 446.231 423.789 447.983 421.779 449.705C419.769 451.426 417.733 453.116 415.67 454.775C413.608 456.434 411.521 458.061 409.408 459.655C407.296 461.25 405.159 462.811 402.998 464.34C400.838 465.868 398.654 467.363 396.447 468.824C394.24 470.285 392.011 471.712 389.76 473.104C383.884 476.726 377.867 480.095 371.708 483.212C368.397 484.898 364.939 486.401 361.703 488.219C359.239 489.202 356.893 490.417 354.474 491.493C351.57 492.786 348.479 493.904 345.511 495.06C338.377 497.837 331.132 500.285 323.776 502.405C316.421 504.526 308.985 506.309 301.467 507.756C295.055 508.991 288.607 509.995 282.123 510.766C278.714 511.165 274.617 510.974 271.366 512H512V269.831C510.849 272.994 511.162 277.46 510.877 280.843C510.591 283.98 510.213 287.105 509.743 290.22C508.974 295.321 508.054 300.395 506.984 305.442C505.914 310.489 504.696 315.499 503.329 320.474C501.963 325.449 500.45 330.378 498.792 335.263C497.134 340.148 495.332 344.98 493.387 349.758C491.865 353.522 490.445 357.78 488.412 361.272Z" fill="url(#paint2_linear_112_86)"/>
<path d="M0 242.571C1.03787 239.276 0.781537 235.01 1.07621 231.516C1.40172 227.971 1.84188 224.441 2.39668 220.925C3.13426 216.131 4.00679 211.361 5.01427 206.616C6.02174 201.871 7.16256 197.159 8.43671 192.478C9.71084 187.798 11.1163 183.157 12.653 178.556C14.1898 173.955 15.8554 169.402 17.6498 164.895C19.5717 160.033 21.5446 154.913 24.09 150.344C57.4372 166.003 91.1726 180.897 124.663 196.252L174.109 218.799C183.327 223.007 192.49 227.487 201.833 231.394C200.195 235.647 198.656 239.809 197.705 244.284C195.358 255.333 196.439 268.607 201.021 278.966C207.58 293.796 219.312 305.695 234.533 311.622C235.291 311.914 236.055 312.19 236.825 312.451C237.594 312.712 238.369 312.956 239.149 313.185C239.929 313.414 240.713 313.626 241.502 313.822C242.29 314.018 243.082 314.197 243.878 314.36C244.674 314.523 245.473 314.67 246.276 314.8C247.078 314.93 247.882 315.044 248.689 315.141C249.496 315.238 250.304 315.318 251.114 315.381C251.924 315.444 252.735 315.491 253.547 315.52C254.36 315.55 255.172 315.563 255.984 315.559C256.797 315.555 257.609 315.534 258.421 315.497C259.232 315.459 260.043 315.405 260.853 315.334C261.662 315.263 262.47 315.175 263.275 315.07C264.081 314.965 264.884 314.844 265.685 314.706C266.486 314.569 267.284 314.414 268.078 314.243C268.873 314.072 269.663 313.885 270.45 313.681C271.237 313.478 272.019 313.258 272.796 313.022C275.469 312.234 277.996 311.051 280.63 310.156C283.954 318.289 287.832 326.26 291.463 334.262L311.565 378.563L343.628 449.224C349.203 461.512 354.664 473.865 360.372 486.091C360.733 486.864 360.999 487.693 361.703 488.219C359.239 489.202 356.893 490.417 354.474 491.493C351.57 492.786 348.479 493.904 345.511 495.06C338.377 497.837 331.132 500.285 323.776 502.405C316.421 504.526 308.984 506.309 301.467 507.756C295.055 508.991 288.607 509.995 282.123 510.766C278.714 511.165 274.617 510.974 271.366 512H240.028H0V270.194V242.571ZM0 270.194V512H240.028C236.347 510.851 230.051 510.848 226.01 510.418C221.184 509.905 216.375 509.068 211.597 508.216C207.921 507.56 204.261 506.824 200.616 506.008C196.972 505.192 193.348 504.297 189.743 503.322C186.138 502.347 182.556 501.295 178.997 500.164C175.438 499.033 171.905 497.824 168.399 496.539C164.893 495.254 161.417 493.892 157.97 492.455C154.523 491.017 151.11 489.505 147.729 487.918C144.349 486.331 141.005 484.672 137.697 482.939C134.389 481.206 131.12 479.402 127.891 477.526C126.08 476.471 124.283 475.393 122.499 474.294C120.714 473.195 118.944 472.075 117.187 470.933C115.43 469.791 113.687 468.628 111.958 467.443C110.229 466.259 108.515 465.054 106.815 463.828C105.116 462.602 103.431 461.355 101.762 460.088C100.093 458.821 98.4393 457.534 96.8013 456.227C95.1633 454.92 93.5414 453.594 91.9356 452.247C90.3298 450.9 88.7406 449.535 87.168 448.15C85.5954 446.765 84.0398 445.361 82.5013 443.938C80.9628 442.515 79.4418 441.074 77.9383 439.614C76.4348 438.154 74.9492 436.676 73.4816 435.181C72.014 433.685 70.5648 432.171 69.1339 430.64C67.703 429.109 66.291 427.56 64.8978 425.995C63.5045 424.43 62.1305 422.848 60.7756 421.249C59.4208 419.65 58.0856 418.035 56.77 416.404C55.4544 414.773 54.1588 413.127 52.8832 411.464C51.6076 409.801 50.3524 408.123 49.1176 406.43C47.8827 404.737 46.6686 403.029 45.4753 401.306C44.2819 399.583 43.1096 397.847 41.9585 396.096C40.8073 394.345 39.6775 392.58 38.5692 390.801C37.4609 389.023 36.3744 387.231 35.3096 385.426C34.2448 383.621 33.2021 381.804 32.1814 379.973C31.1607 378.143 30.1625 376.301 29.1866 374.446C28.2107 372.592 27.2575 370.726 26.3269 368.848C25.3963 366.971 24.4887 365.082 23.604 363.182C22.7193 361.283 21.8578 359.373 21.0195 357.452C20.1812 355.531 19.3663 353.601 18.5749 351.66C17.7835 349.72 17.0158 347.77 16.2717 345.811C15.5276 343.852 14.8075 341.884 14.1112 339.907C13.4149 337.931 12.7428 335.946 12.0947 333.953C11.4466 331.96 10.8229 329.96 10.2234 327.952C9.62395 325.944 9.04896 323.929 8.49843 321.907C5.64231 311.133 3.24832 300.056 1.87913 288.986C1.47237 285.616 1.15154 282.238 0.916626 278.851C0.72509 276.139 0.782986 273.065 0.0725071 270.443C0.04994 270.359 0.024169 270.277 0 270.194Z" fill="url(#paint3_linear_112_86)"/>
</g>
<defs>
<linearGradient id="paint0_linear_112_86" x1="331.184" y1="360.111" x2="331.505" y2="0.0562869" gradientUnits="userSpaceOnUse">
<stop stop-color="#FD5E6E"/>
<stop offset="1" stop-color="#FF7F5B"/>
</linearGradient>
<linearGradient id="paint1_linear_112_86" x1="126.701" y1="228.977" x2="130.224" y2="24.6546" gradientUnits="userSpaceOnUse">
<stop stop-color="white"/>
<stop offset="1" stop-color="#FECCD2"/>
</linearGradient>
<linearGradient id="paint2_linear_112_86" x1="391.683" y1="269.831" x2="391.683" y2="512" gradientUnits="userSpaceOnUse">
<stop stop-color="white"/>
<stop offset="1" stop-color="#FECCD2"/>
</linearGradient>
<linearGradient id="paint3_linear_112_86" x1="180.22" y1="511.813" x2="179.965" y2="150.89" gradientUnits="userSpaceOnUse">
<stop stop-color="#FB4A7D"/>
<stop offset="1" stop-color="#FD5E6E"/>
</linearGradient>
<clipPath id="clip0_112_86">
<rect width="512" height="512" fill="white"/>
</clipPath>
</defs>
</svg>
