<?xml version="1.0" encoding="UTF-8"?><svg id="Layer_1" xmlns="http://www.w3.org/2000/svg" viewBox="0 0 283.46 58.85"><path d="M58.78,1.03c-3.31-1.65-7.22-1.3-10.17.93l-16.53,12.45L15.55,1.96C12.59-.27,8.69-.62,5.37,1.03,2.06,2.68,0,6.01,0,9.71v39.42c0,3.72,2.07,7.05,5.41,8.7,1.38.68,2.85,1.01,4.31,1.01,2.08,0,4.15-.68,5.89-2l16.47-12.59,16.47,12.59c1.74,1.32,3.8,2,5.89,2,1.46,0,2.94-.33,4.31-1.01,3.34-1.65,5.41-4.98,5.41-8.7V9.71c0-3.71-2.06-7.03-5.38-8.68ZM5.59,9.71c0-1.59.86-2.97,2.28-3.69.6-.3,1.23-.45,1.85-.45.87,0,1.72.29,2.47.84l15.29,11.52-10.15,7.87-11.73-9.06v-7.04ZM5.59,23.82l7.17,5.53-7.17,5.55v-11.08ZM12.21,52.41c-1.27.97-2.89,1.13-4.33.42-1.43-.71-2.29-2.09-2.29-3.69v-7.16l11.74-9.1,8.84,6.83,1.32,1.02-15.28,11.67ZM32.08,37.21l-.87-.67-9.32-7.2,10.19-7.9,10.19,7.9-9.58,7.4-.61.47ZM58.57,49.14c0,1.6-.86,2.98-2.29,3.69-1.44.71-3.06.55-4.33-.42l-15.28-11.67,1.23-.95,8.93-6.9,11.74,9.1v7.16ZM58.57,34.9l-7.17-5.55,7.17-5.53v11.08ZM58.57,16.76l-11.73,9.06-10.15-7.87,15.29-11.52c1.28-.96,2.89-1.11,4.32-.4,1.43.72,2.28,2.09,2.28,3.69v7.04ZM119.11,39.45c-4.77,0-8.96-3.06-8.96-8.85v-10.69h5.59v10.68c0,2.12,1.04,3.66,3.37,3.66h0c2.33,0,3.37-1.54,3.37-3.66v-10.68h5.59v10.69c0,5.8-4.2,8.85-8.96,8.85ZM129.57,33.82l4.88-1.29c.25,1.4,1.33,2.62,3.19,2.62,1.65,0,2.29-.93,2.29-1.65,0-1.22-1.04-1.58-3.05-1.86-3.62-.5-6.92-1.72-6.92-6.06,0-3.48,3.51-6.13,7.57-6.13,4.98,0,7.17,3.19,7.57,5.34l-4.84,1.22c-.29-1.29-1.18-2.26-2.8-2.26-1.36,0-2.19.72-2.19,1.58,0,1.15.93,1.47,2.98,1.69,3.69.43,7.17,1.72,7.17,6.13,0,3.26-2.55,6.35-7.78,6.35-5.63,0-7.74-3.62-8.07-5.67ZM150.27,9.77c1.97,0,3.51,1.54,3.51,3.48s-1.54,3.44-3.51,3.44c-1.86,0-3.44-1.54-3.44-3.44s1.58-3.48,3.44-3.48ZM147.51,39.06h5.63v-19.15h-5.63v19.15ZM160.7,39.06h-6.2l6.88-9.65-6.67-9.5h6.27l3.44,5.41,3.55-5.41h6.17l-6.74,9.39,6.92,9.75h-6.27l-3.66-5.63-3.69,5.63ZM216.42,39.42c-5.56,0-9.11-4.8-9.11-9.97,0-4.84,3.66-9.9,9.18-9.9,1.77,0,4.31.34,5.77,1.77h.04v-1.41h5.56v19.15h-5.56v-1.41h-.04c-1.67,1.67-4.98,1.77-5.84,1.77ZM217.71,24.61c-2.62,0-4.73,1.97-4.73,4.84s2.12,4.91,4.73,4.91,4.73-2.01,4.73-4.91-2.12-4.84-4.73-4.84ZM238.92,32.03c0,1.47.82,2.44,2.69,2.44.82,0,.97-.04,1.97-.14v4.55c-1.29.39-2.69.43-3.33.43-5.92,0-6.92-3.87-6.92-6.99v-7.57h-3.73v-4.84h3.8v-5.99h5.52v5.99h4.73v4.84h-4.73v7.28ZM244.01,29.52c0-5.67,4.55-10.04,10.43-10.04,3.98,0,8.32,2.15,9.29,6.53l-5.09,1.54c-.43-1.43-1.9-2.94-4.3-2.94s-4.59,1.79-4.59,4.84c0,2.83,1.86,4.88,4.63,4.88,2.44,0,3.87-1.51,4.41-2.98l5.09,1.54c-1.22,4.41-5.45,6.6-9.57,6.6-6.02,0-10.29-4.27-10.29-9.97ZM277.91,28.45c0-2.08-1.04-3.73-3.33-3.73s-3.44,1.83-3.44,3.66v10.69h-5.59V9.87h5.59v12.3h.04c1.61-2.29,4.27-2.62,5.27-2.62,4.84,0,7.03,3.66,7.03,7.6v11.9h-5.56v-10.61ZM95.87,28.37v10.69h-5.56v-10.61c0-2.08-.82-3.73-3.12-3.73s-3.41,1.54-3.41,3.73v10.61h-5.59v-19.15h5.49v1.7h.07c1.3-1.35,3.1-2.13,5.09-2.13,2.29,0,4.27.73,5.28,2.23,1.15-1.49,3.27-2.23,5.65-2.23,4.7,0,8.26,2.94,8.26,7.64v11.94h-5.59v-10.69c0-2.08-.82-3.66-3.12-3.66s-3.44,1.47-3.44,3.66ZM193.35,28.37v10.69h-5.56v-10.61c0-2.08-.82-3.73-3.12-3.73s-3.41,1.54-3.41,3.73v10.61h-5.59v-19.15h5.49v1.7h.07c1.3-1.35,3.1-2.13,5.09-2.13,2.29,0,4.27.73,5.28,2.23,1.15-1.49,3.27-2.23,5.65-2.23,4.7,0,8.26,2.94,8.26,7.64v11.94h-5.59v-10.69c0-2.08-.82-3.66-3.12-3.66s-3.44,1.47-3.44,3.66Z"/></svg> 