<svg width="500" height="500" viewBox="0 0 500 500" fill="none" xmlns="http://www.w3.org/2000/svg">
<rect y="1" width="499" height="499" fill="url(#paint0_linear_112_17)"/>
<path fill-rule="evenodd" clip-rule="evenodd" d="M352.493 76.1774C351.288 76.2882 340.582 78.1857 339.294 78.4489L191.094 108.352L191.039 108.366C187.174 109.183 184.141 110.554 181.801 112.521C178.975 114.889 177.41 118.241 176.814 122.147C176.69 122.978 176.482 124.668 176.482 127.161C176.482 127.161 176.482 278.574 176.482 312.646C176.482 316.981 176.136 321.191 173.199 324.779C170.263 328.366 166.634 329.446 162.382 330.305C159.155 330.956 155.928 331.607 152.701 332.258C140.457 334.723 132.493 336.399 125.277 339.197C118.379 341.87 113.213 345.277 109.1 349.598C100.942 358.144 97.6316 369.737 98.7673 380.596C99.7368 389.862 103.906 398.726 111.066 405.277C115.9 409.709 121.939 413.075 129.058 414.501C136.44 415.983 144.307 415.471 155.803 413.144C161.925 411.911 167.659 409.986 173.116 406.759C178.518 403.574 183.144 399.321 186.759 394.141C190.388 388.947 192.729 383.172 194.017 377.036C195.346 370.706 195.665 364.986 195.665 358.67V197.798C195.665 189.183 198.102 186.911 205.055 185.222C205.055 185.222 328.241 160.374 333.989 159.252C342.008 157.715 345.789 160 345.789 168.407V278.227C345.789 282.576 345.748 286.981 342.784 290.582C339.848 294.169 336.219 295.249 331.967 296.108C328.74 296.759 325.512 297.41 322.285 298.061C310.042 300.526 302.078 302.202 294.862 305C287.964 307.673 282.798 311.08 278.684 315.402C270.526 323.947 266.925 335.54 268.061 346.399C269.03 355.665 273.49 364.529 280.651 371.08C285.485 375.513 291.524 378.781 298.643 380.222C306.025 381.704 313.892 381.177 325.388 378.864C331.51 377.632 337.244 375.79 342.701 372.562C348.102 369.377 352.729 365.125 356.343 359.945C359.972 354.751 362.313 348.975 363.601 342.839C364.931 336.51 364.986 330.79 364.986 324.474V89.2799C365.014 80.748 360.512 75.4849 352.493 76.1774Z" fill="white"/>
<defs>
<linearGradient id="paint0_linear_112_17" x1="249.5" y1="1" x2="249.5" y2="500" gradientUnits="userSpaceOnUse">
<stop stop-color="#FB5C74"/>
<stop offset="1" stop-color="#FA233B"/>
</linearGradient>
</defs>
</svg>
