<svg width="500" height="500" viewBox="0 0 500 500" fill="none" xmlns="http://www.w3.org/2000/svg">
<g clip-path="url(#clip0_112_4)">
<rect width="500" height="500" fill="url(#paint0_linear_112_4)"/>
<path d="M28.7171 0H471.153L471.24 0.320902L176.144 0.325219L73.0296 0.325454L40.8141 0.334692C37.7514 0.343032 34.6845 0.331995 31.6223 0.388966C30.336 0.412899 29.0209 0.608253 27.7412 0.548302L28.7171 0Z" fill="#FD4948" fill-opacity="0.945098"/>
<path d="M0 29.2502L0.473039 28.9091L0.427275 330.829L0.413811 427.046L0.394376 456.844C0.390757 461.529 -0.00495276 466.572 0.463453 471.216L0 471.025V29.2502Z" fill="#FD4948" fill-opacity="0.266667"/>
<path d="M499.446 28.4584L500 29.0758V470.771L499.517 471.118C499.658 465.31 499.482 459.449 499.479 453.634L499.475 416.125L499.478 302.232L499.446 28.4584Z" fill="#FD4948" fill-opacity="0.313726"/>
<path d="M87.7458 186.668C88.1586 187.17 88.3111 187.193 88.8863 187.411C90.9466 188.195 101.661 197.378 104.147 199.352L146.307 232.755L161.345 244.664C163.677 246.515 166.522 248.385 168.577 250.52C166.948 252.27 164.862 253.735 162.996 255.241C159.293 258.221 155.565 261.17 151.813 264.087L124.105 285.967C116.699 291.834 109.22 297.658 101.892 303.62C98.0283 306.762 92.9655 311.587 88.7675 314.041C88.4826 314.208 88.2841 314.321 87.9457 314.342C87.8753 314.346 87.8052 314.33 87.7349 314.324L87.7458 186.668Z" fill="#FEE4E3"/>
<path d="M168.577 250.52L168.678 250.521C170.76 252.845 173.655 254.785 176.1 256.751L192.793 269.923L237.434 305.421C239.45 307.016 247.337 313.829 249.057 314.431C249.011 314.48 248.967 314.53 248.92 314.578C245.525 318.017 239.366 322.249 235.423 325.387L204.439 349.952L157.228 387.349C150.909 392.327 142.635 399.931 135.905 403.92C135.278 404.294 134.64 404.646 133.989 404.976C133.338 405.307 132.677 405.615 132.006 405.9C131.334 406.186 130.653 406.449 129.964 406.688C129.275 406.927 128.578 407.143 127.874 407.335C127.17 407.527 126.46 407.695 125.745 407.839C125.03 407.983 124.31 408.102 123.587 408.197C122.863 408.292 122.137 408.363 121.409 408.409C120.681 408.454 119.952 408.475 119.222 408.472C110.631 408.484 102.053 405.21 95.9391 399.098C92.2306 395.391 89.4406 390.36 88.3451 385.223C87.0396 379.099 87.7333 367.54 87.7325 360.783L87.7348 314.324C87.8051 314.33 87.8752 314.346 87.9456 314.342C88.284 314.321 88.4825 314.208 88.7674 314.041C92.9654 311.587 98.0282 306.762 101.892 303.62C109.22 297.658 116.699 291.834 124.105 285.967L151.813 264.087C155.565 261.17 159.293 258.221 162.996 255.241C164.862 253.735 166.948 252.27 168.577 250.52Z" fill="#FECCD2"/>
<path d="M329.9 250.495C332.125 248.262 335.095 246.336 337.579 244.346L357.097 228.886L393.696 199.88C398.566 196.052 403.289 191.879 408.311 188.264C409.065 187.721 409.697 187.467 410.607 187.287C410.601 188.538 410.624 189.797 410.543 191.045C410.893 193.616 410.678 196.403 410.678 199.007L410.671 214.589L410.663 267.079L410.606 344.944L410.618 368.476C410.628 373.226 410.894 378.118 410.437 382.842C410.374 383.445 410.29 384.044 410.185 384.641C410.08 385.238 409.955 385.831 409.809 386.419C409.664 387.008 409.498 387.59 409.313 388.167C409.128 388.744 408.923 389.314 408.699 389.877C408.474 390.44 408.231 390.995 407.968 391.541C407.706 392.088 407.425 392.624 407.126 393.151C406.827 393.678 406.51 394.194 406.175 394.699C405.84 395.204 405.489 395.698 405.12 396.179C400.102 402.814 392.318 406.993 384.129 408.121C374.254 409.483 365.937 406.79 358.121 400.789C352.582 396.537 347.264 392.009 341.775 387.697L267.852 329.179C264.918 326.877 251.364 315.356 249.057 314.431C250.418 314.118 251.917 312.679 253.026 311.824C270.434 298.397 287.462 284.403 304.66 270.706C310.702 265.895 316.867 261.262 322.856 256.381C325.165 254.5 327.715 252.673 329.772 250.532L329.9 250.495Z" fill="#FECCD2"/>
<path d="M329.9 250.495C332.125 248.262 335.095 246.336 337.579 244.346L357.097 228.886L393.696 199.88C398.566 196.052 403.289 191.879 408.311 188.264C409.065 187.721 409.697 187.467 410.607 187.287C410.601 188.538 410.624 189.797 410.543 191.045C410.022 194.48 410.391 198.432 410.396 201.924L410.42 223.607L410.413 283.435C410.41 293.766 410.703 304.182 410.369 314.501C404.659 310.145 399.138 305.573 393.5 301.128L353.053 269.094L337.45 256.78C334.977 254.814 332.001 252.848 329.9 250.495Z" fill="#FEE4E3"/>
<path d="M249.387 185.907C257.357 178.892 266.138 172.48 274.472 165.894L320.474 129.444L345.046 109.979C350.978 105.2 357 99.4738 363.642 95.7805C364.319 95.4063 365.008 95.0567 365.709 94.7318C366.41 94.4069 367.123 94.1074 367.846 93.8333C368.569 93.5592 369.3 93.3114 370.041 93.0897C370.782 92.868 371.529 92.6729 372.284 92.5046C373.039 92.3363 373.798 92.1952 374.563 92.0812C375.328 91.9672 376.095 91.8807 376.866 91.8216C377.637 91.7625 378.409 91.731 379.182 91.7271C379.955 91.7232 380.728 91.7468 381.499 91.7981C390.057 92.3793 398.419 96.1931 404.041 102.737C407.073 106.265 409.173 110.353 410.064 114.922C411.351 121.518 410.682 134.22 410.675 141.21L410.607 187.287C409.697 187.467 409.065 187.721 408.311 188.264C403.289 191.879 398.566 196.052 393.696 199.88L357.097 228.886L337.579 244.346C335.095 246.336 332.125 248.262 329.9 250.495L329.772 250.532C327.715 252.673 325.165 254.5 322.856 256.381C316.867 261.262 310.702 265.895 304.66 270.706C287.462 284.403 270.434 298.397 253.026 311.824C251.917 312.679 250.418 314.118 249.057 314.431C247.337 313.829 239.45 307.016 237.434 305.421L192.793 269.923L176.1 256.751C173.655 254.785 170.76 252.845 168.678 250.521L168.577 250.52C166.522 248.385 163.677 246.515 161.345 244.664L146.307 232.755L104.147 199.352C101.661 197.378 90.9467 188.195 88.8864 187.411C88.3112 187.193 88.1587 187.17 87.7459 186.668L87.709 141.983C87.7092 134.042 86.9367 120.965 88.7352 113.627C89.8619 109.03 92.6108 104.605 95.9262 101.262C101.948 95.1909 110.731 91.76 119.25 91.7418C119.963 91.7454 120.675 91.7719 121.386 91.8214C122.097 91.8709 122.806 91.9433 123.513 92.0385C124.22 92.1337 124.922 92.2515 125.621 92.392C126.32 92.5325 127.014 92.6953 127.702 92.8805C128.391 93.0657 129.073 93.2729 129.748 93.502C130.423 93.7311 131.09 93.9818 131.749 94.2539C132.408 94.526 133.057 94.8191 133.697 95.1331C134.337 95.4471 134.966 95.7814 135.585 96.1359C141.065 99.2748 147.29 104.961 152.356 109.03L176.199 127.96L249.387 185.907Z" fill="#FEFEFF"/>
<path d="M249.363 186.405L304.727 230.449C310.774 235.124 316.772 239.86 322.721 244.658C324.982 246.476 327.879 248.358 329.772 250.532C327.715 252.673 325.165 254.5 322.856 256.381C316.867 261.262 310.702 265.895 304.66 270.706C287.462 284.403 270.434 298.397 253.026 311.824C251.917 312.679 250.418 314.118 249.057 314.431C247.337 313.829 239.45 307.016 237.434 305.421L192.793 269.923L176.1 256.751C173.655 254.785 170.76 252.845 168.678 250.521C185.239 236.632 202.612 223.679 219.481 210.171C226.498 204.447 233.57 198.791 240.696 193.202C243.499 190.985 246.332 188.254 249.363 186.405Z" fill="#FEE4E3"/>
</g>
<defs>
<linearGradient id="paint0_linear_112_4" x1="250" y1="0" x2="250" y2="500" gradientUnits="userSpaceOnUse">
<stop stop-color="#FF6635"/>
<stop offset="1" stop-color="#FB1D5F"/>
</linearGradient>
<clipPath id="clip0_112_4">
<rect width="500" height="500" fill="white"/>
</clipPath>
</defs>
</svg>
